<?xml version="1.0" standalone="no"?>
<!DOCTYPE svg PUBLIC "-//W3C//DTD SVG 20010904//EN"
 "http://www.w3.org/TR/2001/REC-SVG-20010904/DTD/svg10.dtd">
<svg version="1.0" xmlns="http://www.w3.org/2000/svg"
 width="512.000000pt" height="512.000000pt" viewBox="0 0 512.000000 512.000000"
 preserveAspectRatio="xMidYMid meet">
<metadata>
Created by potrace 1.14, written by Peter Selinger 2001-2017
</metadata>
<g transform="translate(0.000000,512.000000) scale(0.100000,-0.100000)"
fill="#000000" stroke="none">
<path d="M444 5110 c-122 -18 -236 -78 -312 -165 -59 -67 -109 -175 -122 -260
-7 -47 -10 -752 -8 -2165 l3 -2095 22 -66 c56 -163 175 -281 338 -332 l70 -22
2125 0 c2034 0 2128 1 2185 18 169 52 296 176 348 341 l22 71 0 2125 0 2125
-22 71 c-51 160 -171 282 -333 337 l-65 22 -2100 1 c-1155 1 -2123 -2 -2151
-6z m746 -1715 l0 -85 -225 0 -225 0 0 -630 0 -630 -100 0 -100 0 0 630 0 630
-225 0 -225 0 0 85 0 85 550 0 550 0 0 -85z m672 -295 c63 -23 147 -92 184
-152 47 -74 76 -183 82 -310 l5 -118 -360 0 -360 0 8 -53 c11 -81 45 -151 100
-202 68 -63 107 -79 204 -79 97 -1 170 29 235 94 l42 42 36 -26 c71 -50 74
-54 68 -74 -9 -28 -105 -116 -154 -141 -105 -54 -277 -67 -393 -31 -155 47
-271 172 -314 335 -20 79 -20 281 0 360 47 181 156 307 314 363 56 19 80 22
156 18 58 -3 110 -12 147 -26z m1072 15 c70 -18 137 -62 166 -110 l22 -35 51
46 c29 26 81 61 117 78 61 29 73 31 176 31 107 0 113 -1 180 -35 78 -40 124
-93 151 -173 15 -45 18 -106 21 -459 l3 -408 -95 0 -96 0 0 371 c0 245 -4 386
-11 416 -17 66 -64 108 -135 123 -121 25 -232 -18 -284 -110 l-25 -45 -3 -377
-3 -378 -94 0 -95 0 0 366 c0 230 -4 381 -11 408 -30 119 -154 173 -297 131
-57 -17 -115 -62 -138 -106 -11 -23 -14 -96 -14 -414 l0 -385 -95 0 -95 0 0
530 0 530 90 0 90 0 0 -56 0 -56 39 35 c49 44 85 63 153 81 70 19 160 19 232
1z m1741 0 c125 -32 225 -135 274 -280 32 -93 41 -331 17 -442 -31 -150 -115
-272 -226 -329 -52 -27 -62 -29 -175 -29 -133 0 -177 13 -256 76 l-39 31 0
-251 0 -251 -95 0 -95 0 0 735 0 735 90 0 90 0 0 -56 0 -56 39 35 c49 45 92
67 156 83 70 17 150 17 220 -1z"/>
<path d="M1600 2957 c-76 -24 -149 -127 -175 -244 l-7 -33 262 0 263 0 -7 53
c-14 104 -65 183 -141 218 -45 21 -139 24 -195 6z"/>
<path d="M4445 2961 c-58 -14 -114 -52 -152 -103 -23 -31 -23 -35 -23 -283 0
-250 0 -251 24 -284 75 -102 224 -138 335 -81 91 46 145 144 160 285 25 242
-48 415 -193 460 -52 16 -101 18 -151 6z"/>
</g>
</svg>
