<?xml version="1.0" standalone="no"?>
<!DOCTYPE svg PUBLIC "-//W3C//DTD SVG 20010904//EN"
 "http://www.w3.org/TR/2001/REC-SVG-20010904/DTD/svg10.dtd">
<svg version="1.0" xmlns="http://www.w3.org/2000/svg"
 width="512.000000pt" height="512.000000pt" viewBox="0 0 512.000000 512.000000"
 preserveAspectRatio="xMidYMid meet">
<metadata>
Created by potrace 1.14, written by Peter Selinger 2001-2017
</metadata>
<g transform="translate(0.000000,512.000000) scale(0.100000,-0.100000)"
fill="#000000" stroke="none">
<path d="M420 5109 c-141 -23 -294 -137 -360 -268 -63 -126 -60 4 -60 -2271 0
-1375 4 -2097 10 -2140 35 -216 216 -392 435 -420 54 -7 750 -10 2165 -8
l2085 3 66 22 c185 63 320 221 349 408 7 49 10 708 8 2165 l-3 2095 -22 66
c-29 84 -87 173 -148 227 -64 56 -175 109 -255 122 -83 13 -4191 12 -4270 -1z
m770 -1719 l0 -80 -225 0 -225 0 0 -630 0 -630 -100 0 -100 0 0 630 0 630
-225 0 -225 0 0 80 0 80 550 0 550 0 0 -80z m612 -275 c81 -17 143 -51 197
-110 81 -88 118 -195 128 -372 l6 -113 -361 0 c-199 0 -362 -1 -362 -3 0 -31
28 -133 46 -169 56 -110 143 -163 269 -163 71 0 89 4 147 33 37 18 80 48 97
68 19 21 36 32 44 28 30 -18 97 -77 97 -86 0 -21 -118 -126 -170 -150 -145
-68 -345 -64 -470 9 -112 66 -195 178 -225 304 -19 83 -19 265 0 348 44 187
174 332 335 375 71 19 138 19 222 1z m1180 -17 c54 -26 123 -87 133 -119 5
-14 14 -9 53 30 26 26 79 63 117 82 67 33 74 34 180 34 118 -1 169 -16 240
-69 43 -33 92 -129 104 -206 6 -37 11 -224 11 -432 l0 -368 -95 0 -95 0 0 378
c0 228 -4 392 -10 414 -29 103 -148 151 -288 116 -59 -15 -132 -85 -150 -144
-8 -29 -12 -147 -12 -403 l0 -361 -95 0 -95 0 0 373 c0 229 -4 387 -11 410
-31 111 -164 164 -306 122 -37 -11 -62 -28 -97 -65 l-46 -49 0 -396 0 -395
-95 0 -95 0 0 530 0 530 90 0 90 0 0 -56 0 -56 35 31 c81 71 180 102 302 97
60 -3 95 -10 135 -28z m1750 -5 c81 -38 139 -98 183 -187 47 -95 65 -186 65
-332 0 -253 -90 -439 -248 -512 -121 -55 -296 -39 -407 39 l-55 38 0 -250 0
-250 -92 3 -93 3 0 730 0 730 85 0 85 0 3 -53 3 -53 41 36 c83 70 166 96 290
90 60 -2 92 -10 140 -32z"/>
<path d="M1594 2956 c-79 -35 -150 -136 -168 -238 l-7 -38 261 0 260 0 0 27
c0 96 -67 209 -144 244 -49 22 -156 25 -202 5z"/>
<path d="M4424 2956 c-52 -16 -108 -58 -134 -101 -19 -30 -20 -49 -20 -282 l0
-250 28 -39 c16 -21 52 -52 80 -67 148 -81 323 -18 381 137 61 163 45 392 -35
507 -65 94 -184 131 -300 95z"/>
</g>
</svg>
